<svg class="ldi-2nmu0k" width="100%" height="100%" xmlns="http://www.w3.org/2000/svg" xmlns:xlink="http://www.w3.org/1999/xlink" viewBox="0 0 100 100" preserveAspectRatio="xMidYMid"><!--?xml version="1.0" encoding="utf-8"?--><!--Generator: Adobe Illustrator 21.0.0, SVG Export Plug-In . SVG Version: 6.00 Build 0)--><svg version="1.1" id="Layer_1" xmlns="http://www.w3.org/2000/svg" xmlns:xlink="http://www.w3.org/1999/xlink" x="0px" y="0px" viewBox="0 0 100 100" style="transform-origin: 50px 50px 0px;" xml:space="preserve"><g style="transform-origin: 50px 50px 0px;"><g style="transform-origin: 50px 50px 0px; transform: scale(1);"><g class="ld ld-breath" style="transform-origin: 50px 50px 0px; animation-duration: 5s; animation-delay: -5s; animation-direction: normal;"><g><g style="transform-origin: 50px 50px 0px;"><path style="fill: rgba(255,255,255,0.8); stroke: rgba(255, 255, 255, 0.855); stroke-width: 3; stroke-linecap: round; stroke-miterlimit: 10;" d="M31.342,43.173 c2.469-2.469,2.469-6.473,0-8.942l-5.676-5.676c-2.469-2.469-6.473-2.469-8.942,0l0.01-0.01l-2.905,2.905 c-16.851,16.851,38.547,72.248,55.398,55.398l2.905-2.905l-0.01,0.01c2.469-2.469,2.469-6.473,0-8.942l-5.676-5.676 c-2.469-2.469-6.473-2.469-8.942,0l-2.288,2.288c-1.84,1.84-4.768,1.96-6.78,0.309c-6.94-5.695-13.994-12.749-19.689-19.689 c-1.651-2.012-1.532-4.939,0.309-6.78L31.342,43.173z" stroke="rgba(100%,100%,100%,0.856)"></path></g><g style="transform-origin: 50px 50px 0px;"><g><g style="transform-origin: 50px 50px 0px;"><path style="fill: none; stroke: rgb(255, 255, 255); stroke-width: 3; stroke-linecap: round; stroke-miterlimit: 10;" d="M42.035,32.391 c13.555,1.022,24.317,12.036,24.932,25.7" stroke="#ffffff"></path></g><g style="transform-origin: 50px 50px 0px;"><path style="fill: none; stroke: rgb(255, 255, 255); stroke-width: 3; stroke-linecap: round; stroke-miterlimit: 10;" d="M78.352,58.092 C77.72,38.139,61.88,22.025,42.035,20.977" stroke="#ffffff"></path></g><g style="transform-origin: 50px 50px 0px;"><path style="fill: none; stroke: rgb(255, 255, 255); stroke-width: 3; stroke-linecap: round; stroke-miterlimit: 10;" d="M89.325,58.092 C88.684,32.079,67.941,11.063,42.035,10" stroke="#ffffff"></path></g></g></g><metadata xmlns:d="https://loading.io/stock/" style="transform-origin: 50px 50px 0px;">
<d:name style="transform-origin: 50px 50px 0px;">phone</d:name>
<d:tags style="transform-origin: 50px 50px 0px;">phone,call center,operator,concall,information,contact,line,helpdesk,support,customer service</d:tags>
<d:license style="transform-origin: 50px 50px 0px;">cc-by</d:license>
<d:slug style="transform-origin: 50px 50px 0px;">2nmu0k</d:slug>
</metadata></g></g></g></g><style type="text/css" style="transform-origin: 50px 50px 0px;">path,ellipse,circle,rect,polygon,polyline,line { stroke-width: 0; }@keyframes ld-breath {
  0% {
    -webkit-transform: scale(0.86);
    transform: scale(0.86);
  }
  50% {
    -webkit-transform: scale(1.06);
    transform: scale(1.06);
  }
  100% {
    -webkit-transform: scale(0.86);
    transform: scale(0.86);
  }
}
@-webkit-keyframes ld-breath {
  0% {
    -webkit-transform: scale(0.86);
    transform: scale(0.86);
  }
  50% {
    -webkit-transform: scale(1.06);
    transform: scale(1.06);
  }
  100% {
    -webkit-transform: scale(0.86);
    transform: scale(0.86);
  }
}
.ld.ld-breath {
  -webkit-animation: ld-breath 1s infinite;
  animation: ld-breath 1s infinite;
}
</style></svg></svg>