<svg class="ldi-ntxr3f" width="100%" height="100%" xmlns="http://www.w3.org/2000/svg" xmlns:xlink="http://www.w3.org/1999/xlink" viewBox="0 0 100 100" preserveAspectRatio="xMidYMid"><!--?xml version="1.0" encoding="utf-8"?--><!--Generator: Adobe Illustrator 21.0.0, SVG Export Plug-In . SVG Version: 6.00 Build 0)--><svg version="1.1" id="Layer_1" xmlns="http://www.w3.org/2000/svg" xmlns:xlink="http://www.w3.org/1999/xlink" x="0px" y="0px" viewBox="0 0 100 100" style="transform-origin: 50px 50px 0px;" xml:space="preserve"><g style="transform-origin: 50px 50px 0px;"><g style="transform-origin: 50px 50px 0px; transform: scale(1);"><g class="ld ld-wrench" style="transform-origin: 50px 50px 0px; animation-duration: 5s; animation-delay: -5s; animation-direction: normal;"><g><style type="text/css" style="transform-origin: 50px 50px 0px;">.st0{fill:#F4E6C8;} .st1{opacity:0.8;fill:#849B87;} .st2{fill:#D65A62;} .st3{fill:#E15C64;} .st4{fill:#F47E5F;} .st5{fill:#F7B26A;} .st6{fill:#FEE8A2;} .st7{fill:#ACBD81;} .st8{fill:#F5E169;} .st9{fill:#F0AF6B;} .st10{fill:#EA7C60;} .st11{fill:#A8B980;} .st12{fill:#829985;} .st13{fill:#798AAE;} .st14{fill:#8672A7;} .st15{fill:#CC5960;} .st16{fill:#E17A5F;} .st17{fill:#849B87;} .st18{opacity:0.8;fill:#E15C64;} .st19{opacity:0.8;fill:#F7B26A;} .st20{fill:#79A5B5;} .st21{opacity:0.8;fill:#79A5B4;} .st22{fill:#666766;}</style><g style="transform-origin: 50px 50px 0px;"><path class="st5" d="M51.5,21.1c0,0,1.3,2.7,2.6,4.8c0.2,0.3,0,0.6-0.3,0.6c-3.6,0.4-8.2,0.8-11.2-1.5c-7.5-6.3-3.9-10.6-11.5-15.9 C31,9,31,8.7,31.3,8.7c3.9,0,17.1,0,20.9,2.7c2.7,1.9,4.3,6.5,5.2,10c0.1,0.3-0.2,0.6-0.5,0.5C54.5,21.4,51.5,21.1,51.5,21.1z" fill="#ffffff" stroke="rgba(100%,100%,100%,0.959)" style="fill: rgb(255, 255, 255); stroke: rgba(255, 255, 255, 0.96);"></path></g><g style="transform-origin: 50px 50px 0px;"><path class="st4" d="M35.1,25.2c0.3-0.2,0.3-0.5,0-0.7c-3.1-1.9-7.6-4-10.8-3.4C19.6,22,10.3,31.3,7.6,34c-0.2,0.2,0,0.5,0.2,0.4 c9.1-1.6,9.6,4,19.3,3.1c3.8-0.5,6.7-4.1,9-6.9c0.2-0.2,0.1-0.6-0.2-0.6c-2.4-0.5-5.3-1.5-5.3-1.5S33,26.5,35.1,25.2z" stroke="rgba(100%,100%,100%,0.959)" fill="rgba(100%,100%,100%,0.717)" style="stroke: rgba(255, 255, 255, 0.96); fill: rgba(255, 255, 255, 0.718);"></path></g><g style="transform-origin: 50px 50px 0px;"><path class="st5" d="M21.9,43.1c0.1-0.3-0.2-0.6-0.5-0.5c-3.5,0.9-8.2,2.6-10,5.2c-2.7,3.8-2.7,17-2.7,20.9C8.7,69,9,69,9.2,68.8 c5.3-7.6,9.6-3.9,15.9-11.5c2.3-3.1,1.9-7.6,1.5-11.2c0-0.3-0.4-0.4-0.6-0.3c-2.1,1.4-4.8,2.6-4.8,2.6S21.4,45.5,21.9,43.1z" fill="#ffffff" stroke="rgba(100%,100%,100%,0.959)" style="fill: rgb(255, 255, 255); stroke: rgba(255, 255, 255, 0.96);"></path></g><g style="transform-origin: 50px 50px 0px;"><path class="st4" d="M25.2,64.9c-0.2-0.3-0.5-0.3-0.7,0c-1.9,3.1-4,7.6-3.4,10.8c0.8,4.6,10.1,14,12.9,16.7c0.2,0.2,0.5,0,0.4-0.2 c-1.6-9.1,4-9.6,3.1-19.3c-0.5-3.8-4.1-6.7-6.9-9c-0.2-0.2-0.6-0.1-0.6,0.2c-0.5,2.4-1.5,5.3-1.5,5.3S26.5,67,25.2,64.9z" stroke="rgba(100%,100%,100%,0.959)" fill="rgba(100%,100%,100%,0.717)" style="stroke: rgba(255, 255, 255, 0.96); fill: rgba(255, 255, 255, 0.718);"></path></g><g style="transform-origin: 50px 50px 0px;"><path class="st5" d="M43.1,78.1c-0.3-0.1-0.6,0.2-0.5,0.5c0.9,3.5,2.6,8.2,5.2,10c3.8,2.7,17,2.7,20.9,2.7c0.2,0,0.3-0.3,0.1-0.5 c-7.6-5.3-3.9-9.6-11.5-15.9c-3.1-2.3-7.6-1.9-11.2-1.5c-0.3,0-0.4,0.4-0.3,0.6c1.4,2.1,2.6,4.8,2.6,4.8S45.5,78.6,43.1,78.1z" fill="#ffffff" stroke="rgba(100%,100%,100%,0.959)" style="fill: rgb(255, 255, 255); stroke: rgba(255, 255, 255, 0.96);"></path></g><g style="transform-origin: 50px 50px 0px;"><path class="st4" d="M64.9,74.8c-0.3,0.2-0.3,0.5,0,0.7c3.1,1.9,7.6,4,10.8,3.4c4.6-0.8,14-10.1,16.7-12.9c0.2-0.2,0-0.5-0.2-0.4 c-9.1,1.6-9.6-4-19.3-3.1c-3.8,0.5-6.7,4.1-9,6.9c-0.2,0.2-0.1,0.6,0.2,0.6c2.4,0.5,5.3,1.5,5.3,1.5S67,73.5,64.9,74.8z" stroke="rgba(100%,100%,100%,0.959)" fill="rgba(100%,100%,100%,0.717)" style="stroke: rgba(255, 255, 255, 0.96); fill: rgba(255, 255, 255, 0.718);"></path></g><g style="transform-origin: 50px 50px 0px;"><path class="st5" d="M78.1,56.9c-0.1,0.3,0.2,0.6,0.5,0.5c3.5-0.9,8.2-2.6,10-5.2c2.7-3.8,2.7-17,2.7-20.9c0-0.2-0.3-0.3-0.5-0.1 c-5.3,7.6-9.6,3.9-15.9,11.5c-2.3,3.1-1.9,7.6-1.5,11.2c0,0.3,0.4,0.4,0.6,0.3c2.1-1.4,4.8-2.6,4.8-2.6S78.6,54.5,78.1,56.9z" fill="#ffffff" stroke="rgba(100%,100%,100%,0.959)" style="fill: rgb(255, 255, 255); stroke: rgba(255, 255, 255, 0.96);"></path></g><g style="transform-origin: 50px 50px 0px;"><path class="st4" d="M74.8,35.1c0.2,0.3,0.5,0.3,0.7,0c1.9-3.1,4-7.6,3.4-10.8C78,19.6,68.7,10.3,66,7.6c-0.2-0.2-0.5,0-0.4,0.2 c1.6,9.1-4,9.6-3.1,19.3c0.5,3.8,4.1,6.7,6.9,9c0.2,0.2,0.6,0.1,0.6-0.2c0.5-2.4,1.5-5.3,1.5-5.3S73.5,33,74.8,35.1z" stroke="rgba(100%,100%,100%,0.959)" fill="rgba(100%,100%,100%,0.717)" style="stroke: rgba(255, 255, 255, 0.96); fill: rgba(255, 255, 255, 0.718);"></path></g><metadata xmlns:d="https://loading.io/stock/" style="transform-origin: 50px 50px 0px;">
<d:name style="transform-origin: 50px 50px 0px;">fire</d:name>
<d:tags style="transform-origin: 50px 50px 0px;">burn,flame,hot,flare,ring,wreath,leaf,fire,spinner</d:tags>
<d:license style="transform-origin: 50px 50px 0px;">rf</d:license>
<d:slug style="transform-origin: 50px 50px 0px;">ntxr3f</d:slug>
</metadata></g></g></g></g><style type="text/css" style="transform-origin: 50px 50px 0px;">path,ellipse,circle,rect,polygon,polyline,line { stroke-width: 0; }@keyframes ld-wrench {
  20%, 36%, 70%, 86% {
    -webkit-transform: rotate(0deg);
    transform: rotate(0deg);
  }
  0%, 50%, 100% {
    -webkit-transform: rotate(45deg);
    transform: rotate(45deg);
  }
}
@-webkit-keyframes ld-wrench {
  20%, 36%, 70%, 86% {
    -webkit-transform: rotate(0deg);
    transform: rotate(0deg);
  }
  0%, 50%, 100% {
    -webkit-transform: rotate(45deg);
    transform: rotate(45deg);
  }
}
.ld.ld-wrench {
  -webkit-animation: ld-wrench 1s infinite;
  animation: ld-wrench 1s infinite;
}
</style></svg></svg>